
        Incendies.2010.720p.BRRiP.x264.AC-3(5.1).mkv-Zen_Bud

Format                           : Matroska
File size                        : 2.28 GiB
Duration                         : 2h 10mn
Overall bit rate                 : 2 499 Kbps
Writing library                  : libmkv 0.6.4.1

Video

Format                           : AVC
Format profile                   : High@L3.1
Format settings, CABAC           : Yes
Format settings, ReFrames        : 4 frames
Codec ID                         : V_MPEG4
Duration                         : 2h 10mn
Bit rate                         : 1 809 Kbps
Width                            : 1 280 pixels
Height                           : 688 pixels
Display aspect ratio             : 1.855
Frame rate mode                  : Variable
Frame rate                       : 23.976 fps
Color space                      : YUV
Chroma subsampling               : 4:2:0
Bit depth                        : 8 bits
Scan type                        : Progressive
Bits/(Pixel*Frame)               : 0.086
Stream size                      : 1.65 GiB (72%)
Writing library                  : x264 core 112
Encoding settings                : cabac=1 / ref=3 / deblock=1:0:0 / analyse=0x3:0x113 

Audio

Format                           : AC-3
Duration                         : 2h 10mn
Bit rate mode                    : Constant
Bit rate                         : 640 Kbps
Channel(s)                       : 6 channels
Channel positions                : Front: L C R, Side: L R, LFE
Sampling rate                    : 48.0 KHz
Bit depth                        : 16 bits
Compression mode                 : Lossy
Stream size                      : 597 MiB (26%)
Language                         : French

Text #1

Format                           : UTF-8
Codec ID                         : S_TEXT/UTF8
Codec ID/Info                    : UTF-8 Plain Text
Language                         : English

Text #2

Format                           : UTF-8
Codec ID                         : S_TEXT/UTF8
Codec ID/Info                    : UTF-8 Plain Text
Language                         : Swedish

======================================================================================

Twins journey to the Middle East to discover their family history, and fulfill 
their mother's last wishes. 

======================================================================================
 
http://www.phyrefile.com/image/view/Kf536kzvehuKQSoR 
http://www.phyrefile.com/image/view/8zOVxfh8HlOSADkn 
http://www.phyrefile.com/image/view/52GIXPXMxZISVdhR 
http://www.phyrefile.com/image/view/M1TiAGboHkvgxr22 
http://www.phyrefile.com/image/view/kqdOMTJx3yFkNsR4 
http://www.phyrefile.com/image/view/dQxyINUU7xO0r7E1 
http://www.phyrefile.com/image/view/hV2r91KaUZgaibs7 
http://www.phyrefile.com/image/view/Ktr2YumkP4ntgq6Q
